<?xml version="1.0" encoding="utf-8"?>
<!-- Generator: Adobe Illustrator 16.0.0, SVG Export Plug-In . SVG Version: 6.00 Build 0)  -->
<!DOCTYPE svg PUBLIC "-//W3C//DTD SVG 1.1//EN" "http://www.w3.org/Graphics/SVG/1.1/DTD/svg11.dtd">
<svg version="1.1" id="Layer_1" xmlns="http://www.w3.org/2000/svg" xmlns:xlink="http://www.w3.org/1999/xlink" x="0px" y="0px"
	 width="390.051px" height="330.15px" viewBox="0 0 390.051 330.15" enable-background="new 0 0 390.051 330.15"
	 xml:space="preserve">
<path fill="#00359B" d="M331.5,249.601v48.1h-11.199l-2.398-7.4c-2.769,2.601-5.949,4.783-9.551,6.552
	c-3.5,1.767-7.05,2.648-10.648,2.648c-8.301,0-14.584-2.084-18.852-6.25c-4.268-4.167-6.398-9.732-6.398-16.7
	c0-7.231,2.398-12.815,7.199-16.75c2.533-2,5.367-3.481,8.5-4.448c3.301-0.969,6.967-1.449,11-1.449h15.6
	c-0.231-9.967-4.6-14.951-13.1-14.951c-6.602,0-13.5,1.65-20.699,4.951l-4.602-13.801c2.635-1.666,6.615-3.102,11.95-4.302
	c5.365-1.3,9.75-1.948,13.149-1.948c5.601,0,10.698,1.1,15.299,3.301c4.534,2.299,8.117,5.416,10.75,9.35
	C330.167,240.435,331.5,244.8,331.5,249.601 M357.051,225.8l5.45,11.853c3.601-3.067,7.699-5.75,12.3-8.051
	c4.566-2.533,8.551-3.802,11.95-3.802l3.3,13.149c-3.398,0-7.5,1.269-12.3,3.801c-4.834,2.533-9.217,5.533-13.149,9v45.95h-16.399
	v-71.9H357.051 M244.351,261.75c0-3.5-0.365-6.685-1.102-9.551c-0.898-2.933-2.217-5.416-3.949-7.449
	c-1.564-2.232-3.584-3.95-6.051-5.148c-2.433-1.066-5.082-1.602-7.949-1.602c-2.564,0-5.017,0.383-7.35,1.149
	c-2.167,0.867-4.334,2.065-6.5,3.601v38c4.033,2.967,8.649,4.45,13.85,4.45c2.867,0,5.518-0.602,7.949-1.801
	c2.27-1,4.283-2.533,6.051-4.602C242.668,274.435,244.351,268.75,244.351,261.75 M257.149,241.75
	c1.435,2.833,2.584,5.983,3.451,9.449c0.633,3.301,0.948,6.817,0.948,10.551c0,7.565-1.532,14.116-4.6,19.649
	c-2.801,5.834-7,10.334-12.602,13.5c-5.468,3.166-11.816,4.75-19.051,4.75c-4.334,0-8.949-1.316-13.85-3.949v32.851l-16.601,1.601
	v-99.55h12.3c2.867-2.302,5.934-3.936,9.2-4.9c3.267-1.231,6.315-1.85,9.148-1.85c7.334,0,13.685,1.584,19.051,4.75
	c2.833,1.531,5.302,3.334,7.4,5.398C254.019,236.333,255.75,238.916,257.149,241.75 M314.899,277.95V265h-16.25
	c-3.601,0-6.448,1.116-8.549,3.352c-2.168,2.166-3.25,4.898-3.25,8.198c0,2.5,0.934,4.718,2.799,6.65c1.867,2,4.435,3,7.701,3
	c3.166,0,6.231-0.717,9.198-2.15C309.617,282.517,312.399,280.483,314.899,277.95 M0,192.851h16.7v39.698
	c4.066-2.933,8.267-5.183,12.6-6.75c4.268-1.634,8.316-2.448,12.15-2.448c15.867,0,23.8,9.35,23.8,28.051v46.3h-16.6v-45.3
	c0-5.034-0.867-8.801-2.601-11.301c-1.967-2.4-4.816-3.602-8.55-3.602c-3.033,0-6.25,0.815-9.649,2.449
	c-3.5,1.634-7.218,4.149-11.15,7.551v50.2H0V192.851 M95.301,254.899h33.551c-0.5-2.769-1.2-5.185-2.101-7.25
	c-0.967-2.066-2.117-3.816-3.45-5.25c-2.699-2.935-6.366-4.399-11-4.399c-2.5,0-4.684,0.383-6.55,1.149
	c-1.967,0.666-3.667,1.815-5.1,3.449C97.851,245.533,96.067,249.633,95.301,254.899 M93.801,228.601
	c4.333-2.533,9.2-4.066,14.601-4.602l4.25-0.148c10.5,0,18.482,3.564,23.95,10.698c2.732,3.366,4.816,7.302,6.25,11.802
	c1.3,4.365,1.949,9.334,1.949,14.898v4.95h-49.85c0.667,6.433,2.95,11.166,6.85,14.199c3.833,3.199,9.25,4.801,16.25,4.801
	c3.867,0,7.268-0.434,10.2-1.301l10.8-4.949l5.101,12.148c-3.935,2.732-8.101,4.885-12.5,6.449c-4.466,1.301-9.15,1.95-14.05,1.95
	c-12.934,0-22.833-3.45-29.7-10.352c-3.5-3.299-6.133-7.232-7.9-11.799c-1.633-4.701-2.45-9.951-2.45-15.75
	c0-7.469,1.434-14.084,4.301-19.852C84.551,236.05,88.534,231.666,93.801,228.601 M158.75,297.7V193.699l16.75-10V297.7H158.75"/>
<path fill="#00399F" d="M72.801,70.8l0.801-0.5L195,143.15l31.5-18.801l-56.449-34l5.601-7.4c2.399-2.633,4.533-4.5,6.399-5.6
	c2.968-1.833,6.033-2.7,9.199-2.601c3.134,0,6.4,1.101,9.801,3.3l51.25,30.65l31.449-18.8v28.85l-93,55.949L72.801,103.8V70.8"/>
<path fill="#006AFD" d="M72.801,70.8v33L45.25,87.2L72.801,70.8 M283.75,89.9l-54.148-32.5c-9.699-5.935-20.148-9.167-31.352-9.7
	c-10.898-0.533-21.449,2.267-31.648,8.4c-8.2,5-14.75,11.816-19.649,20.449L105.101,51.5L190.75,0l145.352,87.2l-52.352,31.55V89.9"
	/>
</svg>
