<?xml version="1.0" encoding="utf-8"?>
<!-- Generator: Adobe Illustrator 16.0.0, SVG Export Plug-In . SVG Version: 6.00 Build 0)  -->
<!DOCTYPE svg PUBLIC "-//W3C//DTD SVG 1.1//EN" "http://www.w3.org/Graphics/SVG/1.1/DTD/svg11.dtd">
<svg version="1.1" id="Layer_1" xmlns="http://www.w3.org/2000/svg" xmlns:xlink="http://www.w3.org/1999/xlink" x="0px" y="0px"
	 width="480px" height="480px" viewBox="0 0 480 480" enable-background="new 0 0 480 480" xml:space="preserve">
<path fill="#010101" d="M390,121c8,0,14.83,2.833,20.5,8.5c5.664,5.667,8.5,12.5,8.5,20.5s-2.836,14.833-8.5,20.5
	c-5.67,5.667-12.5,8.5-20.5,8.5s-14.834-2.833-20.5-8.5c-5.669-5.667-8.5-12.5-8.5-20.5s2.831-14.833,8.5-20.5
	C375.165,123.833,382,121,390,121 M350.5,170.5c-5.67,5.666-12.5,8.5-20.5,8.5s-14.834-2.834-20.5-8.5
	c-5.669-5.666-8.5-12.5-8.5-20.5s2.831-14.834,8.5-20.5c5.665-5.666,12.5-8.5,20.5-8.5s14.83,2.834,20.5,8.5
	c5.664,5.666,8.5,12.5,8.5,20.5S356.164,164.834,350.5,170.5 M454.85,40.65V39.4h-14.1v1.25H454.85 M459.35,24.25l-4.949-4.899
	L451.35,22.5l4.851,4.95L459.35,24.25 M455.1,28.55l-4.949-4.949l-8.601,8.6l-0.899,5.75l5.75-0.75L455.1,28.55 M479,30
	c0,8-2.834,14.833-8.5,20.5C464.832,56.167,458,59,450,59s-14.834-2.833-20.5-8.5C423.832,44.833,421,38,421,30
	s2.832-14.833,8.5-20.5C435.166,3.833,442,1,450,1s14.832,2.833,20.5,8.5C476.166,15.167,479,22,479,30 M419,30
	c0,8-2.834,14.833-8.5,20.5C404.832,56.167,398,59,390,59s-14.833-2.833-20.5-8.5S361,38,361,30s2.833-14.833,8.5-20.5S382,1,390,1
	s14.832,2.833,20.5,8.5C416.166,15.167,419,22,419,30 M421,90c0-8,2.832-14.833,8.5-20.5C435.166,63.833,442,61,450,61
	s14.832,2.833,20.5,8.5c2.899,2.9,5.05,6.083,6.449,9.55C478.316,82.417,479,86.066,479,90c0,3.935-0.685,7.584-2.051,10.95
	c-1.399,3.466-3.55,6.649-6.449,9.55c-5.668,5.666-12.5,8.5-20.5,8.5s-14.834-2.834-20.5-8.5C423.832,104.834,421,98,421,90 M419,90
	c0,8-2.834,14.834-8.5,20.5c-5.668,5.666-12.5,8.5-20.5,8.5s-14.833-2.834-20.5-8.5c-2.9-2.899-5.05-6.084-6.45-9.55
	C361.684,97.584,361,93.934,361,90c0-3.934,0.684-7.583,2.05-10.95c1.4-3.466,3.55-6.649,6.45-9.55C375.167,63.833,382,61,390,61
	s14.832,2.833,20.5,8.5C416.166,75.167,419,82,419,90 M439.449,90h-4.101l7.051,7.05l7-7.05h-4.1c0-1.133,0.399-2.1,1.2-2.899
	c0.8-0.801,1.767-1.2,2.899-1.2s2.101,0.399,2.899,1.2c0.8,0.8,1.199,1.767,1.199,2.899s-0.399,2.101-1.199,2.9
	c-0.801,0.8-1.768,1.199-2.899,1.199v5.851c2.767,0,5.116-0.967,7.05-2.9c1.935-1.966,2.899-4.315,2.899-7.05
	c0-2.733-0.966-5.083-2.899-7.05c-1.967-1.934-4.315-2.9-7.05-2.9c-2.733,0-5.067,0.968-7,2.9
	C440.434,84.917,439.449,87.267,439.449,90 M387.85,21.25v6.601h-6.55c-0.633,0-0.95,0.315-0.95,0.949v2.4
	c0,0.633,0.317,0.95,0.95,0.95h6.55v6.55c0,0.633,0.317,0.95,0.95,0.95h2.4c0.633,0,0.949-0.316,0.949-0.95v-6.55h6.601
	c0.565,0,0.865-0.3,0.899-0.9V28.7c-0.034-0.567-0.334-0.85-0.899-0.85h-6.601V21.2c0-0.567-0.301-0.85-0.899-0.85h-2.5
	C388.15,20.35,387.85,20.65,387.85,21.25 M343.4,34.85l0.899-2.601c0.134-0.667,0.017-1.25-0.351-1.75
	c-3.334-4.133-7.982-6.184-13.949-6.149c-5.968-0.034-10.635,2.032-14,6.199c-0.333,0.468-0.435,1.034-0.301,1.7l0.899,2.601
	c0.334,0.732,0.834,1,1.5,0.8l4.801-1c0.899-0.233,1.3-0.633,1.199-1.2l-0.3-2c-0.133-0.8,0.184-1.417,0.95-1.85
	c1.5-0.7,3.25-1.083,5.25-1.15c2,0.066,3.75,0.45,5.25,1.15c0.767,0.433,1.083,1.05,0.949,1.85l-0.3,2
	c-0.101,0.566,0.3,0.966,1.199,1.2l4.801,1C342.566,35.85,343.066,35.583,343.4,34.85 M350.5,9.5C356.167,15.167,359,22,359,30
	c0,8.033-2.833,14.867-8.5,20.5C344.833,56.167,338,59,330,59c-8.033,0-14.884-2.833-20.55-8.5C303.816,44.867,301,38.033,301,30
	c0-8,2.815-14.833,8.45-20.5C315.116,3.833,321.967,1,330,1C338,1,344.833,3.833,350.5,9.5 M333.5,86.5
	c0.967,0.967,1.45,2.133,1.45,3.5c0,1.334-0.483,2.5-1.45,3.5c-0.967,0.967-2.116,1.45-3.45,1.45c-1.366,0-2.55-0.483-3.55-1.45
	c-0.967-1-1.45-2.166-1.45-3.5c0-1.367,0.483-2.533,1.45-3.5c1-0.967,2.184-1.45,3.55-1.45C331.384,85.05,332.533,85.533,333.5,86.5
	 M336.7,96.65c1.833-1.834,2.75-4.033,2.75-6.602c0-2.633-0.917-4.883-2.75-6.75c-1.867-1.833-4.084-2.75-6.65-2.75
	c-2.633,0-4.866,0.917-6.7,2.75c-1.866,1.867-2.8,4.117-2.8,6.75c0,2.567,0.934,4.768,2.8,6.602c1.834,1.866,4.067,2.8,6.7,2.8
	C332.616,99.45,334.833,98.517,336.7,96.65 M350.5,69.5C356.167,75.167,359,82,359,90s-2.833,14.834-8.5,20.5S338,119,330,119
	s-14.833-2.834-20.5-8.5S301,98,301,90s2.833-14.833,8.5-20.5S322,61,330,61S344.833,63.833,350.5,69.5 M383.55,97.05
	c1.934,1.935,4.283,2.9,7.05,2.9V94.1c-1.133,0-2.1-0.399-2.898-1.199c-0.801-0.801-1.2-1.769-1.2-2.9c0-1.133,0.399-2.1,1.2-2.899
	c0.8-0.8,1.767-1.2,2.898-1.2c1.134,0,2.102,0.4,2.9,1.2c0.8,0.8,1.2,1.767,1.2,2.899H390.6l7,7.05L404.65,90h-4.101
	c0-2.732-0.983-5.083-2.95-7.05c-1.933-1.934-4.267-2.9-7-2.9s-5.083,0.968-7.05,2.9c-1.935,1.966-2.899,4.316-2.899,7.05
	C380.65,92.734,381.616,95.084,383.55,97.05 M299,30c0,8.033-2.834,14.867-8.5,20.5C284.834,56.167,278,59,270,59
	c-8.033,0-14.883-2.833-20.55-8.5C243.816,44.867,241,38.033,241,30c0-8,2.815-14.833,8.45-20.5C255.117,3.833,261.967,1,270,1
	c8,0,14.834,2.833,20.5,8.5S299,22,299,30 M264.6,18.6c-0.333-0.601-0.883-0.784-1.648-0.551c-0.833,0.367-1.65,0.784-2.45,1.25
	c-0.566,0.367-0.9,0.867-1,1.5c-0.601,5.268,1.232,10,5.5,14.2c4.2,4.268,8.967,6.101,14.3,5.5c0.567-0.1,1.034-0.434,1.4-1
	l1.25-2.45c0.232-0.767,0.05-1.315-0.551-1.649l-4.101-2.7c-0.8-0.467-1.366-0.467-1.7,0l-1.148,1.65
	c-0.468,0.667-1.15,0.883-2.051,0.649c-1.565-0.565-3.065-1.533-4.5-2.899c-1.366-1.435-2.334-2.935-2.899-4.5
	c-0.233-0.9-0.018-1.583,0.649-2.051L267.3,24.4c0.467-0.333,0.467-0.9,0-1.7L264.6,18.6 M266.25,89.4h-5l8.75,8.75l8.75-8.75h-5
	v-7.5h-7.5V89.4 M270,61c8,0,14.834,2.833,20.5,8.5S299,82,299,90s-2.834,14.834-8.5,20.5S278,119,270,119s-14.834-2.834-20.5-8.5
	S241,98,241,90s2.834-14.833,8.5-20.5S262,61,270,61 M177.85,8.65c1.434,1.534,1.483,2.982,0.15,4.35l-17,16.95l17,16.95
	c1.333,1.566,1.333,3.066,0,4.5l-6.4,6.55c-1.633,1.433-3.184,1.433-4.649,0L150,41l-16.8,16.8c-1.567,1.534-3.117,1.583-4.65,0.15
	l-6.4-6.25c-1.532-1.733-1.532-3.367,0-4.9L139,29.95L122.45,13.3c-1.634-1.565-1.733-3.115-0.301-4.649l6.4-6.4
	c1.633-1.533,3.267-1.533,4.9,0L150,18.95L166.8,2.1c1.467-1.435,3.067-1.384,4.8,0.149L177.85,8.65 M214.35,44.7
	c2.133,0.6,3.816,0.017,5.05-1.75l3.15-4.1l4.25,0.1l10.55,6.8c1.566,0.833,2,2.2,1.3,4.101c-0.833,2.232-1.899,4.366-3.199,6.399
	c-0.867,1.467-2.083,2.283-3.65,2.45c-13.6,1.5-25.733-3.2-36.4-14.1c-10.866-10.634-15.565-22.768-14.1-36.4
	c0.167-1.567,0.983-2.784,2.45-3.65c2.033-1.3,4.167-2.365,6.399-3.199c1.9-0.7,3.268-0.268,4.101,1.3l6.8,10.55
	c1.267,2.066,1.3,3.483,0.1,4.25l-4.1,3.15c-1.767,1.232-2.35,2.917-1.75,5.05c1.434,4,3.95,7.85,7.55,11.55
	C206.517,40.767,210.35,43.267,214.35,44.7 M179,90c0,8-2.833,14.834-8.5,20.5S158,119,150,119s-14.833-2.834-20.5-8.5
	S121,98,121,90s2.833-14.833,8.5-20.5S142,61,150,61s14.833,2.833,20.5,8.5S179,82,179,90 M189.5,69.5C195.167,63.833,202,61,210,61
	s14.833,2.833,20.5,8.5S239,82,239,90s-2.833,14.834-8.5,20.5S218,119,210,119s-14.833-2.834-20.5-8.5S181,98,181,90
	S183.833,75.167,189.5,69.5 M202.35,85.35l4.601,4.6l-4.65,4.65c-0.433,0.434-0.433,0.884,0,1.351l1.75,1.75l1.3-0.05L210,93
	l4.7,4.7c0.399,0.399,0.815,0.399,1.25,0l1.8-1.8c0.367-0.4,0.367-0.816,0-1.25l-4.7-4.7l4.7-4.7c0.367-0.367,0.35-0.767-0.05-1.2
	l-1.75-1.75l-1.301-0.05L210,86.9L205.4,82.3c-0.433-0.433-0.883-0.433-1.35,0l-1.75,1.75C201.9,84.483,201.917,84.917,202.35,85.35
	 M224.6,125c4.333,2.601,7.816,6.066,10.45,10.4c2.534,4.366,3.85,9.231,3.95,14.6c-0.101,5.435-1.417,10.334-3.95,14.7
	c-2.633,4.333-6.116,7.783-10.45,10.35c-4.367,2.567-9.232,3.885-14.6,3.95c-5.4-0.065-10.283-1.383-14.65-3.95
	c-4.333-2.565-7.783-6.017-10.35-10.35c-2.601-4.366-3.934-9.267-4-14.7c0.066-5.367,1.399-10.232,4-14.6
	c2.566-4.334,6.017-7.801,10.35-10.4c4.367-2.533,9.25-3.867,14.65-4C215.367,121.133,220.233,122.467,224.6,125 M214.35,137.6
	c-1.2-1.134-2.649-1.732-4.35-1.801c-1.667,0.067-3.117,0.667-4.351,1.801c-1.133,1.134-1.699,2.584-1.699,4.351
	c0,1.7,0.565,3.116,1.699,4.25c1.233,1.2,2.685,1.8,4.351,1.8c1.7,0,3.149-0.565,4.35-1.699c1.101-1.2,1.65-2.649,1.65-4.351
	C216,140.184,215.45,138.733,214.35,137.6 M170.5,170.5c-5.667,5.666-12.5,8.5-20.5,8.5s-14.833-2.834-20.5-8.5S121,158,121,150
	s2.833-14.834,8.5-20.5S142,121,150,121s14.833,2.834,20.5,8.5S179,142,179,150S176.167,164.834,170.5,170.5 M200.05,154.75
	c-1.466,0.9-2.233,2.033-2.3,3.4c1.399,2,3.133,3.565,5.2,4.699c2.133,1.233,4.482,1.851,7.05,1.851c2.533,0,4.867-0.616,7-1.851
	c2.1-1.134,3.833-2.699,5.2-4.699c-0.067-1.367-0.833-2.5-2.301-3.4c-1.433-0.967-3.083-1.7-4.949-2.2
	c-1.867-0.466-3.518-0.699-4.95-0.699l-5,0.699C203.133,153.05,201.483,153.783,200.05,154.75 M292.15,145.75v27.7
	c-0.167,1.6-0.733,2.899-1.699,3.899c-1.135,1.101-2.45,1.649-3.95,1.649h-33.15c-1.434,0-2.717-0.55-3.85-1.649
	c-0.968-1-1.5-2.301-1.601-3.899v-27.7c0.101-1.467,0.633-2.767,1.601-3.899c1.133-0.968,2.416-1.517,3.85-1.649h2.75v-5.351
	c0.102-4.033,1.484-7.283,4.15-9.75c2.565-2.601,5.782-3.968,9.649-4.101c3.866,0.133,7.133,1.5,9.8,4.101
	c2.366,2.268,3.733,5.149,4.101,8.649h-5.4c-0.268-1.967-1.084-3.7-2.449-5.2c-1.602-1.6-3.65-2.398-6.15-2.398
	c-2.333,0-4.35,0.8-6.05,2.398c-1.7,1.733-2.55,3.75-2.55,6.051v5.601h25.3c1.5,0.134,2.815,0.683,3.95,1.649
	C291.416,142.983,291.983,144.283,292.15,145.75 M269.9,165.1c1.533,0,2.866-0.566,4-1.699c0.968-0.967,1.449-2.217,1.449-3.75
	c0-1.602-0.55-2.884-1.648-3.852c-1-1.134-2.268-1.699-3.801-1.699c-1.601,0-2.884,0.565-3.851,1.699
	c-1.134,0.968-1.7,2.25-1.7,3.852c0,1.533,0.566,2.866,1.7,4C267.017,164.617,268.3,165.1,269.9,165.1 M96.65,23.15
	c-0.8-8.167-5.3-12.601-13.5-13.3c-8.167,0.699-12.6,5.133-13.3,13.3c0.7,8.2,5.133,12.7,13.3,13.5
	C91.35,35.85,95.85,31.35,96.65,23.15 M105.35,22.9v0.35c-0.1,4.167-1.133,7.95-3.1,11.351l0.8,0.6l15.2,15.1
	c0.5,0.468,0.75,1.034,0.75,1.7c0,0.633-0.25,1.2-0.75,1.7l-4.55,4.55c-0.5,0.5-1.067,0.75-1.7,0.75c-0.667,0-1.233-0.25-1.7-0.75
	l-15.1-15.2l-0.45-0.8c-3.5,1.967-7.333,3-11.5,3.101H82.9C69.6,44.15,62.3,36.833,61,23.4v-0.5C62.3,9.6,69.6,2.3,82.9,1h0.5
	C96.833,2.3,104.15,9.6,105.35,22.9 M87.95,93.65c-0.067-0.566,0.216-0.816,0.85-0.75h2.4c0.633-0.066,0.917,0.184,0.85,0.75v5.05
	h6.15v-8.85h1.899c1.3,0.065,1.533-0.283,0.7-1.051L90,79.35L79.2,88.8c-0.833,0.768-0.601,1.116,0.699,1.051h1.9v8.85h6.15V93.65
	 M119,90c0,8-2.833,14.834-8.5,20.5S98,119,90,119s-14.833-2.834-20.5-8.5S61,98,61,90s2.833-14.833,8.5-20.5S82,61,90,61
	s14.833,2.833,20.5,8.5S119,82,119,90 M1.05,1H39.6l19.45,58L1.05,1 M141.55,87.65l-3.65,3.55l8.5,8.45L162.1,84l-3.7-3.649
	l-12,12.05L141.55,87.65 M19.35,81.8H40.7v16.45H19.35V81.8 M16.95,80.6v18.85c0,0.8,0.399,1.2,1.199,1.2H41.9
	c0.768,0,1.15-0.4,1.15-1.2V80.6c0-0.833-0.383-1.25-1.15-1.25H18.15C17.35,79.35,16.95,79.767,16.95,80.6 M24.6,83.2
	c-0.633,0-1.149,0.2-1.55,0.6c-0.466,0.468-0.7,0.983-0.7,1.551c0,0.633,0.233,1.149,0.7,1.55c0.4,0.467,0.917,0.7,1.55,0.7
	c0.566,0,1.083-0.233,1.55-0.7c0.4-0.4,0.601-0.917,0.601-1.55c0-0.567-0.2-1.083-0.601-1.551C25.683,83.4,25.167,83.2,24.6,83.2
	 M34.05,86.6c-0.2-0.233-0.433-0.233-0.7,0l-4.3,5.699l-0.6-0.1L26.6,89.85c-0.167-0.267-0.399-0.267-0.7,0L20.6,96.8h18.9v-3
	L34.05,86.6 M9.45,69.5C15.117,63.833,21.967,61,30,61c8,0,14.833,2.833,20.5,8.5S59,82,59,90c0,8.033-2.833,14.867-8.5,20.5
	C44.833,116.166,38,119,30,119c-8.033,0-14.883-2.834-20.55-8.5C3.817,104.867,1,98.033,1,90C1,82,3.817,75.167,9.45,69.5
	 M36.65,143.45H59L40.9,156.6l6.65,20.649L30,164.5l-17.5,12.75L19.15,156.6L1,143.45h22.35l6.65-20.7L36.65,143.45 M79.15,156.6
	L61,143.45h22.35l6.65-20.7l6.649,20.7H119L100.9,156.6l6.65,20.649L90,164.5l-17.5,12.75L79.15,156.6 M156.1,138.7l-1.649-1.75
	c-0.634-0.634-1.284-0.634-1.95,0L139.55,150l12.95,13.05c0.732,0.635,1.417,0.635,2.05,0l1.65-1.648
	c0.565-0.634,0.532-1.301-0.101-2l-9.399-9.4l9.399-9.449C156.667,139.883,156.667,139.267,156.1,138.7 M85.4,146.45H69.3l13.05,9.5
	L77.7,170.5l12.3-9h0.05l12.3,8.95l-4.649-14.5l13.05-9.5H94.65L90,132.1L85.4,146.45 M336.448,141.3h-3.197
	c-0.603,0-0.9,0.268-0.9,0.801v15.75c0,0.565,0.302,0.854,0.9,0.854h3.197c0.533,0,0.803-0.284,0.803-0.854V142.05
	C337.25,141.55,336.983,141.3,336.448,141.3 M326.75,141.3h-3.2c-0.533,0-0.8,0.268-0.8,0.801v15.75c0,0.565,0.28,0.854,0.85,0.854
	h3.15c0.563,0,0.85-0.284,0.85-0.854V142.05C327.6,141.55,327.316,141.3,326.75,141.3 M395.474,147.85l-0.05-0.051l-8.45-7.449v19.3
	l8.45-7.45h0.05l0.103-0.05l2.45-2.15L395.474,147.85"/>
</svg>
