<?xml version="1.0" encoding="utf-8"?>
<!-- Generator: Adobe Illustrator 16.0.0, SVG Export Plug-In . SVG Version: 6.00 Build 0)  -->
<!DOCTYPE svg PUBLIC "-//W3C//DTD SVG 1.1//EN" "http://www.w3.org/Graphics/SVG/1.1/DTD/svg11.dtd">
<svg version="1.1" id="Layer_1" xmlns="http://www.w3.org/2000/svg" xmlns:xlink="http://www.w3.org/1999/xlink" x="0px" y="0px"
	 width="480px" height="480px" viewBox="0 0 480 480" enable-background="new 0 0 480 480" xml:space="preserve">
<g>
	<path fill="#000000" d="M454.85,40.65V39.4h-14.1v1.25H454.85 M459.35,24.25l-4.949-4.9l-3.051,3.15l4.851,4.95L459.35,24.25
		 M455.1,28.55l-4.949-4.95l-8.601,8.6l-0.899,5.75l5.75-0.75L455.1,28.55 M479,30c0,8-2.833,14.833-8.5,20.5S458,59,450,59
		s-14.833-2.833-20.5-8.5S421,38,421,30s2.833-14.833,8.5-20.5S442,1,450,1s14.833,2.833,20.5,8.5S479,22,479,30 M419,30
		c0,8-2.833,14.833-8.5,20.5S398,59,390,59s-14.833-2.833-20.5-8.5S361,38,361,30s2.833-14.833,8.5-20.5S382,1,390,1
		s14.833,2.833,20.5,8.5S419,22,419,30 M421,90c0-8,2.833-14.833,8.5-20.5S442,61,450,61s14.833,2.833,20.5,8.5
		c2.9,2.9,5.05,6.083,6.45,9.55C478.316,82.417,479,86.066,479,90s-0.684,7.584-2.05,10.95c-1.4,3.466-3.55,6.649-6.45,9.55
		c-5.667,5.666-12.5,8.5-20.5,8.5s-14.833-2.834-20.5-8.5S421,98,421,90 M419,90c0,8-2.833,14.834-8.5,20.5S398,119,390,119
		s-14.833-2.834-20.5-8.5c-2.9-2.9-5.05-6.084-6.45-9.55C361.684,97.584,361,93.934,361,90s0.684-7.583,2.05-10.95
		c1.4-3.466,3.55-6.65,6.45-9.55C375.167,63.833,382,61,390,61s14.833,2.833,20.5,8.5S419,82,419,90 M439.45,90h-4.101l7.051,7.05
		l7-7.05H445.3c0-1.133,0.4-2.1,1.2-2.9c0.8-0.8,1.767-1.2,2.9-1.2c1.133,0,2.1,0.4,2.899,1.2c0.8,0.8,1.2,1.767,1.2,2.9
		c0,1.133-0.4,2.1-1.2,2.9c-0.8,0.8-1.767,1.199-2.899,1.199v5.851c2.767,0,5.116-0.967,7.05-2.9
		c1.934-1.966,2.899-4.316,2.899-7.05s-0.966-5.083-2.899-7.05c-1.967-1.934-4.316-2.9-7.05-2.9s-5.067,0.967-7,2.9
		C440.434,84.917,439.45,87.267,439.45,90 M387.85,21.25v6.6h-6.55c-0.633,0-0.95,0.316-0.95,0.95v2.4c0,0.633,0.317,0.95,0.95,0.95
		h6.55v6.55c0,0.633,0.317,0.95,0.95,0.95h2.4c0.633,0,0.95-0.316,0.95-0.95v-6.55h6.6c0.566,0,0.866-0.3,0.9-0.9V28.7
		c-0.034-0.567-0.334-0.85-0.9-0.85h-6.6V21.2c0-0.567-0.301-0.85-0.9-0.85h-2.5C388.15,20.35,387.85,20.65,387.85,21.25
		 M343.4,34.85l0.899-2.6c0.134-0.667,0.017-1.25-0.35-1.75c-3.334-4.133-7.983-6.184-13.95-6.15c-5.967-0.034-10.634,2.033-14,6.2
		c-0.333,0.467-0.434,1.034-0.3,1.7l0.899,2.6c0.334,0.733,0.834,1,1.5,0.8l4.801-1c0.899-0.233,1.3-0.633,1.199-1.2l-0.3-2
		c-0.133-0.8,0.184-1.417,0.95-1.85c1.5-0.7,3.25-1.083,5.25-1.15c2,0.066,3.75,0.45,5.25,1.15c0.767,0.433,1.083,1.05,0.95,1.85
		l-0.3,2c-0.101,0.566,0.3,0.966,1.199,1.2l4.801,1C342.566,35.85,343.066,35.583,343.4,34.85 M350.5,9.5
		C356.167,15.167,359,22,359,30c0,8.033-2.833,14.867-8.5,20.5C344.833,56.167,338,59,330,59c-8.033,0-14.884-2.833-20.55-8.5
		C303.816,44.867,301,38.033,301,30c0-8,2.816-14.833,8.45-20.5C315.116,3.833,321.967,1,330,1C338,1,344.833,3.833,350.5,9.5
		 M333.5,86.5c0.967,0.967,1.45,2.133,1.45,3.5c0,1.334-0.483,2.5-1.45,3.5c-0.967,0.967-2.116,1.45-3.45,1.45
		c-1.366,0-2.55-0.483-3.55-1.45c-0.967-1-1.45-2.166-1.45-3.5c0-1.367,0.483-2.533,1.45-3.5c1-0.967,2.184-1.45,3.55-1.45
		C331.384,85.05,332.533,85.533,333.5,86.5 M336.7,96.65c1.833-1.834,2.75-4.033,2.75-6.601c0-2.633-0.917-4.883-2.75-6.75
		c-1.867-1.833-4.084-2.75-6.65-2.75c-2.633,0-4.866,0.917-6.7,2.75c-1.866,1.867-2.8,4.117-2.8,6.75c0,2.567,0.934,4.767,2.8,6.601
		c1.834,1.866,4.067,2.8,6.7,2.8C332.616,99.45,334.833,98.517,336.7,96.65 M350.5,69.5C356.167,75.167,359,82,359,90
		s-2.833,14.834-8.5,20.5S338,119,330,119s-14.833-2.834-20.5-8.5S301,98,301,90s2.833-14.833,8.5-20.5S322,61,330,61
		S344.833,63.833,350.5,69.5 M383.55,97.05c1.934,1.934,4.283,2.9,7.05,2.9V94.1c-1.133,0-2.1-0.399-2.899-1.199
		c-0.8-0.801-1.2-1.768-1.2-2.9c0-1.133,0.4-2.1,1.2-2.9c0.8-0.8,1.767-1.2,2.899-1.2c1.134,0,2.101,0.4,2.9,1.2
		c0.8,0.8,1.2,1.767,1.2,2.9H390.6l7,7.05L404.65,90h-4.101c0-2.733-0.983-5.083-2.95-7.05c-1.933-1.934-4.267-2.9-7-2.9
		s-5.083,0.967-7.05,2.9c-1.934,1.966-2.899,4.316-2.899,7.05S381.616,95.084,383.55,97.05 M299,30c0,8.033-2.834,14.867-8.5,20.5
		C284.834,56.167,278,59,270,59c-8.033,0-14.883-2.833-20.55-8.5C243.816,44.867,241,38.033,241,30c0-8,2.816-14.833,8.45-20.5
		C255.117,3.833,261.967,1,270,1c8,0,14.834,2.833,20.5,8.5S299,22,299,30 M264.6,18.6c-0.333-0.6-0.883-0.784-1.649-0.55
		c-0.833,0.367-1.65,0.784-2.45,1.25c-0.566,0.367-0.9,0.867-1,1.5c-0.6,5.267,1.233,10,5.5,14.2c4.2,4.267,8.967,6.1,14.3,5.5
		c0.567-0.1,1.034-0.434,1.4-1l1.25-2.45c0.233-0.767,0.05-1.316-0.55-1.65l-4.101-2.7c-0.8-0.467-1.366-0.467-1.7,0l-1.149,1.65
		c-0.467,0.667-1.15,0.883-2.05,0.65c-1.566-0.566-3.066-1.533-4.5-2.9c-1.367-1.434-2.334-2.934-2.9-4.5
		c-0.233-0.9-0.017-1.583,0.65-2.05l1.649-1.15c0.467-0.333,0.467-0.9,0-1.7L264.6,18.6 M266.25,89.4h-5l8.75,8.75l8.75-8.75h-5
		v-7.5h-7.5V89.4 M270,61c8,0,14.834,2.833,20.5,8.5S299,82,299,90s-2.834,14.834-8.5,20.5S278,119,270,119s-14.834-2.834-20.5-8.5
		S241,98,241,90s2.834-14.833,8.5-20.5S262,61,270,61 M177.85,8.65c1.433,1.534,1.483,2.983,0.15,4.35l-17,16.95l17,16.95
		c1.333,1.567,1.333,3.067,0,4.5l-6.4,6.55c-1.633,1.433-3.184,1.433-4.65,0L150,41l-16.8,16.8c-1.567,1.534-3.117,1.583-4.65,0.15
		l-6.4-6.25c-1.533-1.733-1.533-3.367,0-4.9L139,29.95L122.45,13.3c-1.633-1.566-1.733-3.116-0.3-4.65l6.4-6.4
		c1.633-1.533,3.267-1.533,4.9,0L150,18.95L166.8,2.1c1.467-1.434,3.067-1.383,4.8,0.15L177.85,8.65 M214.35,44.7
		c2.133,0.6,3.816,0.017,5.05-1.75l3.15-4.1l4.25,0.1l10.55,6.8c1.566,0.833,2,2.2,1.3,4.1c-0.833,2.233-1.9,4.367-3.2,6.4
		c-0.867,1.467-2.083,2.283-3.65,2.45c-13.6,1.5-25.733-3.2-36.4-14.1c-10.867-10.633-15.566-22.767-14.1-36.4
		c0.167-1.567,0.983-2.784,2.45-3.65c2.033-1.3,4.167-2.366,6.4-3.2c1.9-0.7,3.267-0.267,4.1,1.3l6.8,10.55
		c1.267,2.066,1.3,3.483,0.1,4.25l-4.1,3.15c-1.767,1.233-2.35,2.917-1.75,5.05c1.434,4,3.95,7.85,7.55,11.55
		C206.517,40.767,210.35,43.267,214.35,44.7 M179,90c0,8-2.833,14.834-8.5,20.5S158,119,150,119s-14.833-2.834-20.5-8.5
		S121,98,121,90s2.833-14.833,8.5-20.5S142,61,150,61s14.833,2.833,20.5,8.5S179,82,179,90 M189.5,69.5
		C195.167,63.833,202,61,210,61s14.833,2.833,20.5,8.5S239,82,239,90s-2.833,14.834-8.5,20.5S218,119,210,119
		s-14.833-2.834-20.5-8.5S181,98,181,90S183.833,75.167,189.5,69.5 M202.35,85.35l4.6,4.6L202.3,94.6
		c-0.433,0.434-0.433,0.884,0,1.351l1.75,1.75l1.3-0.05L210,93l4.7,4.7c0.4,0.399,0.816,0.399,1.25,0l1.8-1.8
		c0.367-0.4,0.367-0.816,0-1.25l-4.7-4.7l4.7-4.7c0.367-0.367,0.35-0.767-0.05-1.2l-1.75-1.75l-1.3-0.05L210,86.9l-4.6-4.6
		c-0.433-0.433-0.883-0.433-1.35,0l-1.75,1.75C201.9,84.483,201.917,84.917,202.35,85.35 M224.6,125
		c4.333,2.6,7.816,6.066,10.45,10.4c2.534,4.366,3.85,9.232,3.95,14.6c-0.1,5.434-1.417,10.334-3.95,14.7
		c-2.633,4.333-6.116,7.783-10.45,10.35c-4.367,2.567-9.233,3.884-14.6,3.95c-5.4-0.066-10.283-1.383-14.65-3.95
		c-4.333-2.566-7.783-6.017-10.35-10.35c-2.6-4.366-3.933-9.267-4-14.7c0.067-5.367,1.4-10.233,4-14.6
		c2.567-4.334,6.017-7.801,10.35-10.4c4.367-2.533,9.25-3.867,14.65-4C215.367,121.133,220.233,122.467,224.6,125 M214.35,137.6
		c-1.2-1.133-2.65-1.732-4.35-1.8c-1.667,0.067-3.117,0.667-4.35,1.8c-1.133,1.134-1.7,2.584-1.7,4.351c0,1.7,0.566,3.116,1.7,4.25
		c1.233,1.2,2.684,1.8,4.35,1.8c1.7,0,3.15-0.566,4.35-1.7c1.1-1.2,1.65-2.649,1.65-4.35C216,140.184,215.45,138.733,214.35,137.6
		 M170.5,170.5c-5.667,5.666-12.5,8.5-20.5,8.5s-14.833-2.834-20.5-8.5S121,158,121,150s2.833-14.834,8.5-20.5S142,121,150,121
		s14.833,2.834,20.5,8.5S179,142,179,150S176.167,164.834,170.5,170.5 M200.05,154.75c-1.466,0.9-2.233,2.033-2.3,3.4
		c1.4,2,3.133,3.566,5.2,4.699c2.133,1.234,4.483,1.851,7.05,1.851c2.533,0,4.867-0.616,7-1.851c2.1-1.133,3.833-2.699,5.2-4.699
		c-0.067-1.367-0.833-2.5-2.3-3.4c-1.433-0.967-3.083-1.7-4.95-2.2c-1.867-0.466-3.517-0.7-4.95-0.7l-5,0.7
		C203.133,153.05,201.483,153.783,200.05,154.75 M292.15,145.75v27.7c-0.167,1.6-0.734,2.899-1.7,3.899
		c-1.134,1.101-2.45,1.65-3.95,1.65h-33.15c-1.434,0-2.717-0.55-3.85-1.65c-0.967-1-1.5-2.3-1.6-3.899v-27.7
		c0.1-1.467,0.633-2.767,1.6-3.9c1.133-0.967,2.416-1.516,3.85-1.649h2.75v-5.351c0.101-4.033,1.484-7.283,4.15-9.75
		c2.566-2.6,5.783-3.967,9.65-4.1c3.866,0.133,7.133,1.5,9.8,4.1c2.366,2.268,3.733,5.15,4.1,8.65H278.4
		c-0.268-1.967-1.084-3.7-2.45-5.2c-1.601-1.6-3.65-2.399-6.15-2.399c-2.333,0-4.35,0.8-6.05,2.399c-1.7,1.733-2.55,3.75-2.55,6.05
		v5.601h25.3c1.5,0.134,2.816,0.683,3.95,1.649C291.416,142.983,291.983,144.283,292.15,145.75 M269.9,165.1
		c1.533,0,2.866-0.566,4-1.699c0.967-0.967,1.449-2.217,1.449-3.75c0-1.601-0.55-2.884-1.649-3.851c-1-1.134-2.267-1.7-3.8-1.7
		c-1.601,0-2.884,0.566-3.851,1.7c-1.134,0.967-1.7,2.25-1.7,3.851c0,1.533,0.566,2.866,1.7,4
		C267.017,164.617,268.3,165.1,269.9,165.1 M96.65,23.15c-0.8-8.167-5.3-12.6-13.5-13.3c-8.167,0.7-12.6,5.133-13.3,13.3
		c0.7,8.2,5.133,12.7,13.3,13.5C91.35,35.85,95.85,31.35,96.65,23.15 M105.35,22.9v0.35c-0.1,4.167-1.133,7.95-3.1,11.35l0.8,0.6
		l15.2,15.1c0.5,0.467,0.75,1.034,0.75,1.7c0,0.633-0.25,1.2-0.75,1.7l-4.55,4.55c-0.5,0.5-1.067,0.75-1.7,0.75
		c-0.667,0-1.233-0.25-1.7-0.75l-15.1-15.2l-0.45-0.8c-3.5,1.967-7.333,3-11.5,3.1H82.9C69.6,44.15,62.3,36.833,61,23.4v-0.5
		C62.3,9.6,69.6,2.3,82.9,1h0.5C96.833,2.3,104.15,9.6,105.35,22.9 M87.95,93.65c-0.067-0.566,0.216-0.816,0.85-0.75h2.4
		c0.633-0.066,0.917,0.184,0.85,0.75v5.05h6.15V89.85h1.9c1.3,0.066,1.533-0.283,0.7-1.05L90,79.35L79.2,88.8
		c-0.833,0.767-0.6,1.116,0.7,1.05h1.9V98.7h6.15V93.65 M119,90c0,8-2.833,14.834-8.5,20.5S98,119,90,119s-14.833-2.834-20.5-8.5
		S61,98,61,90s2.833-14.833,8.5-20.5S82,61,90,61s14.833,2.833,20.5,8.5S119,82,119,90 M1.05,1H39.6l19.45,58L1.05,1 M141.55,87.65
		l-3.65,3.55l8.5,8.45L162.1,84l-3.7-3.65l-12,12.05L141.55,87.65 M19.35,81.8H40.7v16.45H19.35V81.8 M16.95,80.6v18.85
		c0,0.8,0.4,1.2,1.2,1.2H41.9c0.767,0,1.15-0.4,1.15-1.2V80.6c0-0.833-0.383-1.25-1.15-1.25H18.15
		C17.35,79.35,16.95,79.767,16.95,80.6 M24.6,83.2c-0.633,0-1.15,0.2-1.55,0.6c-0.466,0.467-0.7,0.983-0.7,1.55
		c0,0.633,0.233,1.15,0.7,1.55c0.4,0.467,0.917,0.7,1.55,0.7c0.566,0,1.083-0.233,1.55-0.7c0.4-0.4,0.6-0.917,0.6-1.55
		c0-0.567-0.2-1.083-0.6-1.55C25.683,83.4,25.167,83.2,24.6,83.2 M34.05,86.6c-0.2-0.233-0.433-0.233-0.7,0l-4.3,5.7l-0.6-0.1
		L26.6,89.85c-0.167-0.266-0.4-0.266-0.7,0l-5.3,6.95h18.9v-3L34.05,86.6 M9.45,69.5C15.117,63.833,21.967,61,30,61
		c8,0,14.833,2.833,20.5,8.5S59,82,59,90c0,8.033-2.833,14.867-8.5,20.5C44.833,116.166,38,119,30,119
		c-8.033,0-14.883-2.834-20.55-8.5C3.817,104.867,1,98.033,1,90C1,82,3.817,75.167,9.45,69.5 M36.65,143.45H59L40.9,156.6
		l6.65,20.65L30,164.5l-17.5,12.75l6.65-20.65L1,143.45h22.35l6.65-20.7L36.65,143.45 M79.15,156.6L61,143.45h22.35l6.65-20.7
		l6.65,20.7H119L100.9,156.6l6.65,20.65L90,164.5l-17.5,12.75L79.15,156.6 M156.1,138.7l-1.65-1.75c-0.633-0.634-1.284-0.634-1.95,0
		L139.55,150l12.95,13.05c0.733,0.634,1.417,0.634,2.05,0l1.65-1.649c0.566-0.634,0.533-1.301-0.1-2l-9.4-9.4l9.4-9.45
		C156.667,139.883,156.667,139.267,156.1,138.7 M85.4,146.45H69.3l13.05,9.5L77.7,170.5l12.3-9h0.05l12.3,8.95l-4.65-14.5l13.05-9.5
		h-16.1L90,132.1L85.4,146.45"/>
</g>
</svg>
