<?xml version="1.0" encoding="utf-8"?>
<!-- Generator: Adobe Illustrator 16.0.0, SVG Export Plug-In . SVG Version: 6.00 Build 0)  -->
<!DOCTYPE svg PUBLIC "-//W3C//DTD SVG 1.1//EN" "http://www.w3.org/Graphics/SVG/1.1/DTD/svg11.dtd">
<svg version="1.1" id="Layer_1" xmlns="http://www.w3.org/2000/svg" xmlns:xlink="http://www.w3.org/1999/xlink" x="0px" y="0px"
	 width="437.65px" height="330.15px" viewBox="0 0 437.65 330.15" enable-background="new 0 0 437.65 330.15" xml:space="preserve">
<g>
	<path fill="#00359B" d="M331.5,249.6V297.7h-11.199l-2.4-7.4c-2.767,2.6-5.949,4.783-9.55,6.55c-3.5,1.767-7.05,2.65-10.649,2.65
		c-8.301,0-14.584-2.084-18.851-6.25c-4.267-4.167-6.399-9.733-6.399-16.7c0-7.233,2.399-12.816,7.199-16.75
		c2.533-2,5.367-3.483,8.5-4.45c3.301-0.967,6.967-1.449,11-1.449h15.6c-0.232-9.967-4.6-14.951-13.1-14.951
		c-6.6,0-13.5,1.65-20.699,4.951l-4.601-13.801c2.634-1.666,6.616-3.1,11.95-4.3c5.366-1.3,9.75-1.95,13.15-1.95
		c5.6,0,10.699,1.1,15.299,3.301c4.534,2.299,8.117,5.416,10.75,9.35C330.167,240.434,331.5,244.8,331.5,249.6 M357.051,225.8
		l5.45,11.851c3.6-3.067,7.699-5.75,12.3-8.051c4.566-2.533,8.55-3.8,11.95-3.8l3.3,13.149c-3.4,0-7.5,1.268-12.3,3.801
		c-4.834,2.533-9.217,5.533-13.15,9v45.95h-16.4v-71.9H357.051 M244.351,261.75c0-3.5-0.366-6.684-1.101-9.551
		c-0.899-2.933-2.217-5.416-3.949-7.449c-1.566-2.233-3.584-3.95-6.051-5.15c-2.433-1.066-5.082-1.6-7.949-1.6
		c-2.566,0-5.017,0.383-7.35,1.15c-2.167,0.866-4.334,2.066-6.5,3.6v38c4.033,2.967,8.649,4.45,13.85,4.45
		c2.867,0,5.517-0.601,7.949-1.801c2.268-1,4.283-2.533,6.051-4.6C242.668,274.434,244.351,268.75,244.351,261.75 M257.15,241.75
		c1.434,2.833,2.584,5.983,3.45,9.449c0.634,3.301,0.95,6.817,0.95,10.551c0,7.566-1.533,14.116-4.6,19.649
		c-2.801,5.834-7,10.334-12.601,13.5c-5.467,3.167-11.817,4.75-19.05,4.75c-4.334,0-8.95-1.316-13.85-3.949v32.85l-16.601,1.6V230.6
		h12.3c2.867-2.3,5.934-3.934,9.2-4.9c3.267-1.232,6.316-1.85,9.149-1.85c7.334,0,13.684,1.584,19.051,4.75
		c2.833,1.533,5.3,3.334,7.4,5.4C254.018,236.333,255.75,238.916,257.15,241.75 M314.9,277.95V265h-16.25
		c-3.6,0-6.449,1.116-8.55,3.35c-2.167,2.167-3.25,4.9-3.25,8.2c0,2.5,0.934,4.717,2.8,6.65c1.867,2,4.434,3,7.7,3
		c3.167,0,6.233-0.717,9.2-2.15C309.617,282.517,312.4,280.483,314.9,277.95 M0,192.85h16.7v39.7c4.066-2.933,8.267-5.183,12.6-6.75
		c4.267-1.634,8.316-2.45,12.15-2.45c15.867,0,23.8,9.35,23.8,28.051v46.3h-16.6v-45.3c0-5.034-0.867-8.801-2.6-11.301
		c-1.967-2.4-4.817-3.6-8.55-3.6c-3.033,0-6.25,0.816-9.65,2.449c-3.5,1.634-7.217,4.15-11.15,7.551v50.2H0V192.85 M95.301,254.9
		h33.55c-0.5-2.768-1.2-5.184-2.1-7.25c-0.967-2.067-2.117-3.817-3.45-5.25c-2.7-2.934-6.367-4.4-11-4.4
		c-2.5,0-4.684,0.383-6.55,1.15c-1.967,0.666-3.667,1.816-5.1,3.449C97.851,245.533,96.067,249.633,95.301,254.9 M93.801,228.6
		c4.333-2.533,9.2-4.066,14.6-4.6l4.25-0.15c10.5,0,18.483,3.566,23.95,10.7c2.733,3.366,4.817,7.3,6.25,11.8
		c1.3,4.367,1.95,9.334,1.95,14.9v4.95h-49.85c0.667,6.433,2.95,11.166,6.85,14.199c3.833,3.2,9.25,4.801,16.25,4.801
		c3.867,0,7.267-0.434,10.2-1.301l10.8-4.949l5.1,12.149c-3.934,2.733-8.1,4.884-12.5,6.45c-4.466,1.3-9.15,1.95-14.05,1.95
		c-12.933,0-22.833-3.45-29.7-10.351c-3.5-3.3-6.133-7.233-7.9-11.8c-1.633-4.7-2.45-9.95-2.45-15.75
		c0-7.467,1.433-14.083,4.3-19.85C84.551,236.05,88.534,231.666,93.801,228.6 M158.75,297.7V193.699l16.75-10V297.7H158.75"/>
	<path fill="#00399F" d="M72.801,70.8l0.8-0.5L195,143.15l31.5-18.801l-56.449-34l5.6-7.4c2.4-2.633,4.533-4.5,6.4-5.6
		c2.967-1.833,6.033-2.7,9.199-2.6c3.134,0,6.4,1.1,9.801,3.3l51.25,30.65l31.449-18.8v28.85l-93,55.949L72.801,103.8V70.8"/>
	<path fill="#006AFD" d="M72.801,70.8v33L45.25,87.2L72.801,70.8 M283.75,89.9l-54.149-32.5c-9.7-5.934-20.149-9.167-31.351-9.7
		c-10.899-0.533-21.449,2.267-31.649,8.4c-8.2,5-14.75,11.817-19.649,20.45L105.101,51.5L190.75,0l145.351,87.2l-52.351,31.55V89.9"
		/>
	<path fill="#00379D" d="M400.251,223.5c0,1.5,0.149,2.967,0.449,4.4c0.334,1.433,0.817,2.799,1.45,4.1
		c1.434,2.533,3.351,4.566,5.75,6.1c1.3,0.733,2.667,1.283,4.101,1.65l4.75,0.449l4.75-0.449c1.433-0.367,2.816-0.917,4.149-1.65
		c2.533-1.533,4.434-3.566,5.7-6.1c1.333-2.533,2-5.367,2-8.5c0-3.301-0.667-6.2-2-8.7c-1.267-2.601-3.167-4.616-5.7-6.05
		c-1.333-0.667-2.717-1.217-4.149-1.65l-4.75-0.5l-4.75,0.5c-1.434,0.434-2.801,0.983-4.101,1.65c-2.399,1.434-4.316,3.4-5.75,5.9
		c-0.633,1.299-1.116,2.649-1.45,4.049C400.4,220.232,400.251,221.833,400.251,223.5 M398.551,213c1.767-3.2,4.184-5.667,7.25-7.4
		c1.633-0.867,3.366-1.533,5.2-2c1.767-0.533,3.683-0.8,5.75-0.8c2.1,0,4.083,0.267,5.949,0.8c1.834,0.467,3.517,1.133,5.051,2
		c1.533,0.9,2.916,1.95,4.149,3.15c1.2,1.3,2.217,2.717,3.05,4.25c1.801,3.133,2.7,6.633,2.7,10.5c0,3.8-0.899,7.232-2.7,10.3
		c-0.833,1.667-1.85,3.101-3.05,4.3c-1.233,1.2-2.616,2.233-4.149,3.1c-3.167,1.867-6.834,2.801-11,2.801
		c-4.167,0-7.817-0.934-10.95-2.801c-3.066-1.732-5.483-4.199-7.25-7.399c-1.733-3.067-2.601-6.5-2.601-10.3
		C395.95,219.633,396.817,216.133,398.551,213 M416.751,211.35c2.633,0,4.767,0.6,6.399,1.801c0.9,0.566,1.5,1.283,1.8,2.149
		c0.467,0.866,0.7,1.884,0.7,3.05c0,1.434-0.383,2.7-1.149,3.801c-0.667,1.1-1.667,1.866-3,2.299l5.8,10.5h-5.15l-4.7-9.5
		l-3.949,0.15v9.35h-4.65v-23.6H416.751 M413.501,214.949V222h1.949c1.767,0,3.134-0.283,4.101-0.85c1-0.434,1.5-1.301,1.5-2.601
		c0-1.5-0.45-2.483-1.351-2.95c-0.866-0.434-2.217-0.65-4.05-0.65H413.501"/>
</g>
</svg>
