<?xml version="1.0" encoding="utf-8"?>
<!-- Generator: Adobe Illustrator 16.0.0, SVG Export Plug-In . SVG Version: 6.00 Build 0)  -->
<!DOCTYPE svg PUBLIC "-//W3C//DTD SVG 1.1//EN" "http://www.w3.org/Graphics/SVG/1.1/DTD/svg11.dtd">
<svg version="1.1" id="Layer_1" xmlns="http://www.w3.org/2000/svg" xmlns:xlink="http://www.w3.org/1999/xlink" x="0px" y="0px"
	 width="433.05px" height="366.4px" viewBox="0 0 433.05 366.4" enable-background="new 0 0 433.05 366.4" xml:space="preserve">
<g>
	<path fill="#006AFD" d="M315.05,131.75V99.6L254.95,63.55c-10.766-6.533-22.333-10.1-34.699-10.7
		c-12.233-0.567-23.967,2.566-35.2,9.4C175.883,67.783,168.6,75.367,163.2,85L116.65,57L211.7,0l161.5,96.8L315.05,131.75
		 M80.85,78.65v36.5L50.25,96.8L80.85,78.65"/>
	<path fill="#00359B" d="M363.549,262.399c2.934,4.367,4.4,9.25,4.4,14.65v53.3H355.7l-2.85-8.1c-3.066,2.934-6.566,5.35-10.5,7.25
		c-3.934,1.866-7.867,2.8-11.8,2.8c-9.3,0-16.284-2.25-20.95-6.75c-4.8-4.666-7.199-10.85-7.199-18.55
		c0-8.033,2.683-14.233,8.049-18.6c2.768-2.167,5.9-3.834,9.4-5c3.666-1.034,7.75-1.551,12.25-1.551h17.25
		c-0.133-11.066-4.934-16.6-14.4-16.6c-7.299,0-14.949,1.817-22.949,5.45l-5.25-15.301c2.934-1.899,7.383-3.5,13.35-4.799
		c5.967-1.467,10.834-2.201,14.6-2.201c6.134,0,11.75,1.25,16.851,3.75C356.651,254.616,360.651,258.033,363.549,262.399
		 M416,254.75c5.1-2.767,9.549-4.149,13.35-4.149l3.699,14.649c-3.799,0-8.383,1.384-13.75,4.149
		c-5.266,2.768-10.082,6.117-14.449,10.051v50.899H386.5v-79.749h9.85l6.1,13.1C406.383,260.366,410.901,257.384,416,254.75
		 M279.651,259.8c2.332,2.467,4.299,5.301,5.899,8.5c1.601,3.2,2.851,6.7,3.75,10.5c0.7,3.634,1.05,7.566,1.05,11.8
		c0,8.301-1.666,15.584-5,21.851c-3.199,6.399-7.867,11.35-14,14.85c-6.1,3.5-13.166,5.25-21.199,5.25
		c-4.801,0-9.967-1.467-15.5-4.399v36.5L216.3,366.4v-110.55h13.75c3.066-2.467,6.417-4.284,10.05-5.451c3.666-1.333,7.1-2,10.301-2
		c8.133,0,15.199,1.75,21.199,5.25C274.633,255.417,277.317,257.467,279.651,259.8 M340.401,315.3
		c3.365-1.767,6.433-4.033,9.199-6.8v-14.4h-17.949c-4.067,0-7.268,1.233-9.601,3.7s-3.5,5.533-3.5,9.2
		c0,2.767,1.017,5.233,3.05,7.4c2.033,2.199,4.883,3.3,8.551,3.3C333.651,317.7,337.067,316.9,340.401,315.3 M265.7,309.4
		c3.768-4.834,5.65-11.101,5.65-18.801c0-3.933-0.434-7.5-1.3-10.699c-1.034-3.2-2.483-5.967-4.351-8.3
		c-1.766-2.5-4.033-4.4-6.799-5.701c-2.634-1.166-5.551-1.75-8.75-1.75c-2.9,0-5.584,0.434-8.051,1.301
		c-2.5,0.867-4.983,2.184-7.449,3.949v42.15c4.5,3.367,9.666,5.05,15.5,5.05c3.199,0,6.116-0.649,8.75-1.949
		C261.534,313.483,263.8,311.733,265.7,309.4 M41.7,263.5c-3.333,0-6.9,0.95-10.7,2.851c-3.933,1.732-8.083,4.5-12.45,8.299v55.7H0
		V214.101h18.55v43.949c4.533-3.199,9.2-5.684,14-7.449c4.8-1.734,9.316-2.601,13.55-2.601c17.6,0,26.4,10.333,26.4,31v51.35H54.15
		V280.1c0-5.533-1.017-9.683-3.05-12.45C48.934,264.884,45.8,263.5,41.7,263.5 M86.05,290.35c0-8.3,1.617-15.649,4.85-22.05
		c3.033-6.267,7.466-11.15,13.3-14.65c4.8-2.766,10.183-4.433,16.15-5l4.85-0.25c11.633,0,20.433,3.934,26.4,11.801
		c3.067,3.8,5.4,8.184,7,13.15c1.467,4.933,2.2,10.466,2.2,16.6v5.45h-55.3c0.733,7.133,3.284,12.449,7.65,15.949
		c4.233,3.5,10.216,5.25,17.95,5.25c4.2,0,7.983-0.517,11.35-1.55l12-5.45l5.701,13.551c-4.367,3.066-9.034,5.399-14,7
		c-4.934,1.433-10.1,2.149-15.5,2.149c-14.434,0-25.434-3.783-33-11.35c-3.934-3.634-6.85-8-8.75-13.101
		C87,302.616,86.05,296.783,86.05,290.35 M124.75,264.149c-2.767,0-5.167,0.434-7.2,1.301c-2.2,0.732-4.1,1.982-5.7,3.75
		c-3.2,3.333-5.233,7.916-6.1,13.75h37.35c-0.6-3.066-1.4-5.767-2.4-8.1c-1.033-2.334-2.267-4.301-3.7-5.9
		C133.934,265.75,129.85,264.149,124.75,264.149 M194.901,203.851V330.35H176.3V215L194.901,203.851"/>
	<path fill="#00399F" d="M315.05,99.6v32.15L211.7,193.8L80.85,115.15v-36.5L81.7,78l134.8,80.85l34.949-21L188.75,100.3l6.35-8.35
		c2.633-2.9,4.967-4.934,7-6.1c3.334-2.033,6.75-2.983,10.25-2.85c3.5,0,7.15,1.167,10.95,3.5l56.8,34.1L315.05,99.6"/>
</g>
</svg>
